<svg xmlns="http://www.w3.org/2000/svg" viewBox="0 0 128 128" width="128" height="128" role="img" aria-label="60+">
  <title>60+</title>
  <defs>
    <filter id="g60PLUS" x="-40%" y="-40%" width="180%" height="180%">
      <feGaussianBlur stdDeviation="7.0" result="b"/>
      <feMerge><feMergeNode in="b"/><feMergeNode in="SourceGraphic"/></feMerge>
    </filter>
    <filter id="ig60PLUS" x="-20%" y="-20%" width="140%" height="140%">
      <feGaussianBlur stdDeviation="2.8" result="b"/>
      <feMerge><feMergeNode in="b"/><feMergeNode in="SourceGraphic"/></feMerge>
    </filter>
    <linearGradient id="bg60PLUS" x1="0%" y1="0%" x2="0%" y2="100%">
      <stop offset="0%" stop-color="#1a1a20"/>
      <stop offset="100%" stop-color="#0d0d10"/>
    </linearGradient>
    <linearGradient id="edge60PLUS" x1="0%" y1="0%" x2="100%" y2="100%">
      <stop offset="0%" stop-color="#ef4444" stop-opacity="0.80"/>
      <stop offset="50%" stop-color="#f87171" stop-opacity="0.60"/>
      <stop offset="100%" stop-color="#ef4444" stop-opacity="0.35"/>
    </linearGradient>
  </defs>
  <path d="M64.00,5.12L114.99,34.56L114.99,93.44L64.00,122.88L13.01,93.44L13.01,34.56Z" fill="none" stroke="#f87171" stroke-width="1.92"
        opacity="0.35" filter="url(#g60PLUS)"/>
  <path d="M64.00,15.36L106.12,39.68L106.12,88.32L64.00,112.64L21.88,88.32L21.88,39.68Z" fill="url(#bg60PLUS)"/>
  <path d="M64.00,15.36L106.12,39.68L106.12,88.32L64.00,112.64L21.88,88.32L21.88,39.68Z" fill="none" stroke="url(#edge60PLUS)" stroke-width="2.56"
        stroke-linejoin="round"/>
  <path d="M64.00,19.25L102.75,41.63L102.75,86.37L64.00,108.75L25.25,86.37L25.25,41.63Z" fill="none" stroke="#ef4444" stroke-width="0.51"
        opacity="0.15"/>

      <line x1="31.6" y1="22.8" x2="39.3" y2="22.8"
            stroke="#ef4444" stroke-width="1.54" opacity="0.60" stroke-linecap="round"/>
      <line x1="96.4" y1="22.8" x2="88.7" y2="22.8"
            stroke="#ef4444" stroke-width="1.54" opacity="0.60" stroke-linecap="round"/>
  <text x="64.0" y="61.44" text-anchor="middle" dominant-baseline="central"
        font-family="'Bebas Neue', 'Arial Narrow', sans-serif" font-size="40.0" font-weight="700"
        fill="#fff" filter="url(#ig60PLUS)" opacity="1.00">60</text>
  <rect x="38.4" y="94.6" width="4.4" height="6.4" rx="1.3" fill="#f87171" opacity="0.53"/>
  <rect x="45.1" y="94.6" width="4.4" height="6.4" rx="1.3" fill="#f87171" opacity="0.61"/>
  <rect x="51.8" y="94.6" width="4.4" height="6.4" rx="1.3" fill="#f87171" opacity="0.69"/>
  <rect x="58.5" y="94.6" width="4.4" height="6.4" rx="1.3" fill="#f87171" opacity="0.76"/>
  <rect x="65.2" y="94.6" width="4.4" height="6.4" rx="1.3" fill="#f87171" opacity="0.84"/>
  <rect x="71.8" y="94.6" width="4.4" height="6.4" rx="1.3" fill="#f87171" opacity="0.92"/>
  <rect x="78.6" y="94.6" width="4.4" height="6.4" rx="1.3" fill="#f87171" opacity="1.00"/>
</svg>
